

<!-- Generator: Adobe Illustrator 23.0.3, SVG Export Plug-In . SVG Version: 6.00 Build 0)  -->
<svg version="1.1" id="Layer_1" xmlns="http://www.w3.org/2000/svg" xmlns:xlink="http://www.w3.org/1999/xlink" x="0px" y="0px"
	 viewBox="0 0 524.15 106.77" style="enable-background:new 0 0 524.15 106.77;" xml:space="preserve">
<style type="text/css">
	.st0{fill:#FF671D;}
	.st1{fill:#4A4F54;}
</style>
<g>
	<g>
		<path class="st0" d="M116.58,33.64c-0.02-0.02-15.06-19.21-34.06-10.21c-3.15,1.49-5.83,3.27-8.16,5.28
			c7.46,6.38,13.07,13.25,16.4,20.29l1.25,3.18c5.53-9.74,12.06-15.79,35.27-17.98c26.08-2.46,38.49,1.91,39.11,1.46
			C160.15,31.4,130.6,30.95,116.58,33.64z"/>
		<path class="st0" d="M40.62,95.2c0.78-1.02,1.41-2.08,1.61-3.15c0.22-1.07,0.12-2.16-0.35-3.3c-0.46-1.13-1.27-2.23-2.19-3.27
			c-0.14-0.15-0.31-0.29-0.46-0.44c-6.53,11.32-16,20.58-17.19,21.73c0.07-0.02,0.15-0.05,0.22-0.07c1.42-0.62,2.82-1.25,4.21-1.9
			c2.71-1.28,5.33-2.69,7.79-4.24C36.69,98.99,39.05,97.25,40.62,95.2z"/>
		<path class="st0" d="M0,0c0.2,0.07,0.48,0.18,0.82,0.31c-0.27-0.1-0.52-0.2-0.79-0.3c11.45,7.74,19.91,21.1,22.83,36.98
			c5.3,1.86,11.98,4.8,18.97,9.51c0.75,0.43,1.51,0.85,2.25,1.3c2.69,1.67,5.3,3.48,7.83,5.43c2.5,1.99,4.9,4.13,7.14,6.48
			c2.22,2.37,4.28,4.94,6,7.81c1.55,2.64,2.84,5.55,3.52,8.69c0.46,1.86,0.63,3.73,0.41,5.58c-0.13,2.01-0.55,4-1.34,5.81
			c-1.33,3.31-3.5,6.02-5.85,8.34c-3.13,2.98-6.62,5.32-10.26,7.27c1.02-0.31,2.08-0.65,3.17-1.03c-1.16,0.42-2.28,0.79-3.36,1.13
			c-0.14,0.08-0.28,0.15-0.42,0.22c21.4-5.93,36.23-17.3,39.04-32.45C95.32,42.2,55.1,10.46,0,0z M63.4,98.23
			c-0.07,0.04-0.13,0.08-0.2,0.12C63.27,98.31,63.34,98.27,63.4,98.23z M65.13,97.2c-0.25,0.16-0.5,0.31-0.76,0.46
			C64.62,97.51,64.87,97.36,65.13,97.2z"/>
		<path class="st0" d="M63.3,82.6c1.47-12.8-16.36-25.36-21.88-29.24c-6.41-4.52-12.65-7.26-17.64-8.96
			c0.11,1.59,0.18,3.19,0.18,4.81c0,5.99-0.78,11.76-2.22,17.18c16.71,8.49,28.46,18.14,27.03,25.79
			c-1.77,9.5-19.23,14.4-19.16,14.54C29.7,106.89,61.43,98.77,63.3,82.6z"/>
	</g>
	<g>
		<path class="st1" d="M137.97,92.97h-25.61l-4.47,11.21h-6.97l20.3-50.53h7.8l20.38,50.53h-6.97L137.97,92.97z M114.19,87.37h21.89
			l-10.91-28.11L114.19,87.37z"/>
		<path class="st1" d="M179.26,98.73c-2.73,3.71-7.2,6.36-12.35,6.36c-9.55,0-16.29-7.27-16.29-19.17
			c0-11.67,6.67-19.24,16.29-19.24c4.92,0,9.39,2.42,12.35,6.44V53.65h5.68v50.53h-5.68V98.73z M179.26,77.67
			c-2.05-3.18-6.44-5.91-10.99-5.91c-7.35,0-11.74,6.06-11.74,14.17c0,8.11,4.39,14.09,11.74,14.09c4.55,0,8.94-2.58,10.99-5.76
			V77.67z"/>
		<path class="st1" d="M189.33,67.59h6.14l12.2,30l12.12-30H226l-15.23,36.59h-6.21L189.33,67.59z"/>
		<path class="st1" d="M251.75,100.02c-3.03,3.33-7.2,5.08-12.12,5.08c-6.21,0-12.8-4.17-12.8-12.12c0-8.18,6.59-12.05,12.8-12.05
			c5,0,9.17,1.59,12.12,5v-6.59c0-4.92-3.94-7.73-9.24-7.73c-4.39,0-7.95,1.59-11.21,5.08l-2.65-3.94
			c3.94-4.09,8.64-6.06,14.62-6.06c7.73,0,14.17,3.48,14.17,12.35v25.15h-5.68V100.02z M251.75,89.56
			c-2.2-3.03-6.06-4.55-10.08-4.55c-5.3,0-9.02,3.33-9.02,8.03c0,4.62,3.71,7.95,9.02,7.95c4.02,0,7.88-1.51,10.08-4.55V89.56z"/>
		<path class="st1" d="M287.43,80.25c0-6.44-3.26-8.49-8.18-8.49c-4.47,0-8.71,2.73-10.83,5.68v26.74h-5.68V67.59h5.68v5.3
			c2.58-3.03,7.58-6.21,13.03-6.21c7.65,0,11.67,3.86,11.67,11.82v25.68h-5.68V80.25z"/>
		<path class="st1" d="M316.07,66.69c6.67,0,10.61,2.73,13.41,6.36l-3.79,3.48c-2.42-3.33-5.53-4.77-9.32-4.77
			c-7.8,0-12.65,5.98-12.65,14.09s4.85,14.17,12.65,14.17c3.79,0,6.89-1.51,9.32-4.77l3.79,3.48c-2.8,3.64-6.74,6.36-13.41,6.36
			c-10.91,0-18.26-8.33-18.26-19.24C297.81,75.02,305.16,66.69,316.07,66.69z"/>
		<path class="st1" d="M348.79,66.69c11.06,0,17.58,8.64,17.58,19.62v1.44h-29.62c0.45,6.89,5.3,12.65,13.18,12.65
			c4.17,0,8.41-1.67,11.29-4.62l2.73,3.71c-3.64,3.64-8.56,5.61-14.55,5.61c-10.83,0-18.64-7.8-18.64-19.24
			C330.76,75.25,338.34,66.69,348.79,66.69z M336.75,83.58h24.02c-0.08-5.45-3.71-12.2-12.05-12.2
			C340.92,71.38,337.05,77.97,336.75,83.58z"/>
		<path class="st1" d="M399.02,98.73c-2.73,3.71-7.2,6.36-12.35,6.36c-9.55,0-16.29-7.27-16.29-19.17
			c0-11.67,6.67-19.24,16.29-19.24c4.92,0,9.39,2.42,12.35,6.44V53.65h5.68v50.53h-5.68V98.73z M399.02,77.67
			c-2.05-3.18-6.44-5.91-10.99-5.91c-7.35,0-11.74,6.06-11.74,14.17c0,8.11,4.39,14.09,11.74,14.09c4.55,0,8.94-2.58,10.99-5.76
			V77.67z"/>
		<path class="st1" d="M436.65,104.18l-9.74-31.59l-4.32,31.59h-12.45l6.86-50.31h15.08l10.5,34.05l9.91-34.05h15.16l6.86,50.31
			h-12.54l-4.4-31.59l-9.74,31.59H436.65z"/>
		<path class="st1" d="M479.09,54.3c3.73-0.59,10.67-1.27,16.85-1.27c16.77,0,28.2,8.64,28.2,25.49c0,18.38-11.94,26.34-28.54,26.34
			c-6.01,0-12.62-0.34-16.52-1.19V54.3z M491.71,93.6c1.52,0.17,3.64,0.25,5.42,0.25c8.38,0,14.06-4.83,14.06-15.33
			c0-9.66-6.35-13.89-14.31-13.89c-1.61,0-3.64,0.08-5.17,0.25V93.6z"/>
	</g>
</g>
</svg>
