<svg height="28" width="167" xmlns:xlink="http://www.w3.org/1999/xlink" xmlns="http://www.w3.org/2000/svg" viewBox="0 0 167 28">
    <path fill="#333740" fill-rule="evenodd" d="M 55.32 0.33 L 55.32 23.5 L 36.95 0.33 L 35.26 0.33 L 35.26 27.18 L 37.26 27.18 L 37.26 4.09 L 55.63 27.18 L 57.32 27.18 L 57.32 0.33 L 55.32 0.33 Z M 55.32 0.33" />
    <path fill="#333740" fill-rule="evenodd" d="M 63.57 17.32 L 76 17.32 C 75.92 13.68 73.62 11.46 70.01 11.46 C 66.18 11.46 63.92 13.95 63.57 17.32 L 63.57 17.32 Z M 77 25.07 C 75.42 26.72 72.93 27.53 70.63 27.53 C 65.18 27.53 61.46 24 61.46 18.55 C 61.46 13.53 64.53 9.58 70.21 9.58 C 74.66 9.58 78.03 12.64 78.03 17.36 C 78.03 18.01 77.99 18.51 77.92 18.97 L 63.69 18.97 C 63.84 23.12 66.6 25.65 70.74 25.65 C 73.08 25.65 75.15 24.77 76.34 23.54 L 77 25.07 Z M 77 25.07" />
    <path fill="#333740" fill-rule="evenodd" d="M 90.01 18.28 L 96.87 27.18 L 94.42 27.18 L 88.51 19.55 L 82.6 27.18 L 80.26 27.18 L 87.13 18.36 L 80.65 9.92 L 83.1 9.92 L 88.59 17.06 L 94.15 9.92 L 96.49 9.92 L 90.01 18.28 Z M 90.01 18.28" />
    <path fill="#333740" fill-rule="evenodd" d="M 100.14 5.13 L 102.13 5.13 L 102.13 9.92 L 109.08 9.92 L 109.08 11.8 L 102.13 11.8 L 102.13 20.32 C 102.13 23.69 103.25 25.53 106.01 25.53 C 107.16 25.53 108.16 25.07 108.77 24.61 L 109.42 26.19 C 108.62 26.84 107.2 27.41 105.55 27.41 C 101.71 27.41 100.14 25.03 100.14 20.62 L 100.14 5.13 Z M 100.14 5.13" />
    <path fill="#333740" fill-rule="evenodd" d="M 114.06 17.32 L 126.49 17.32 C 126.41 13.68 124.11 11.46 120.51 11.46 C 116.67 11.46 114.41 13.95 114.06 17.32 L 114.06 17.32 Z M 127.49 25.07 C 125.92 26.72 123.42 27.53 121.12 27.53 C 115.67 27.53 111.95 24 111.95 18.55 C 111.95 13.53 115.02 9.58 120.7 9.58 C 125.15 9.58 128.52 12.64 128.52 17.36 C 128.52 18.01 128.49 18.51 128.41 18.97 L 114.18 18.97 C 114.33 23.12 117.09 25.65 121.24 25.65 C 123.58 25.65 125.65 24.77 126.84 23.54 L 127.49 25.07 Z M 127.49 25.07" />
    <path fill="#333740" fill-rule="evenodd" d="M 147.53 24.73 C 146.07 26.57 143.54 27.53 141 27.53 C 135.67 27.53 131.87 24 131.87 18.55 C 131.87 13.53 135.56 9.58 140.47 9.58 C 143.15 9.58 145.53 10.15 147.18 11.72 L 146.22 13.34 C 144.69 11.95 142.77 11.46 140.77 11.46 C 137.13 11.46 133.98 14.45 133.98 18.55 C 133.98 22.92 137.13 25.65 141.16 25.65 C 143.38 25.65 145.34 24.65 146.53 23.27 L 147.53 24.73 Z M 147.53 24.73" />
    <path fill="#333740" fill-rule="evenodd" d="M 151.44 0.33 L 153.44 0.33 L 153.44 12.26 C 154.78 10.77 157.27 9.61 159.65 9.61 C 164.33 9.61 166.86 11.95 166.86 17.36 L 166.86 27.18 L 164.87 27.18 L 164.87 17.67 C 164.87 13.53 163.02 11.49 159.19 11.49 C 156.85 11.49 154.55 12.76 153.44 14.14 L 153.44 27.18 L 151.44 27.18 L 151.44 0.33 Z M 151.44 0.33" />
    <path fill="#00b6c8" fill-rule="evenodd" d="M 0 3.86 L 0 22.58 C 0.03 22.56 0.05 22.54 0.08 22.51 L 11.32 13.14 C 13.35 11.45 14.02 8.18 12.83 5.83 L 10.12 0.5 L 3.36 0.5 C 1.5 0.5 0 2.01 0 3.86" />
    <path fill="#333740" fill-rule="evenodd" d="M 23.5 0.5 L 12.79 0.5 L 14.71 4.26 C 15.9 6.61 18.51 7.15 20.53 5.46 L 25.59 1.24 C 25.02 0.78 24.29 0.5 23.5 0.5" />
    <path fill="#00b6c8" fill-rule="evenodd" d="M 20.14 14.95 L 25.92 26.32 C 26.5 25.72 26.86 24.9 26.86 24 L 26.86 3.86 C 26.86 3.68 26.84 3.5 26.81 3.33 L 21.64 7.64 C 19.62 9.33 18.94 12.6 20.14 14.95" />
    <path fill="#61bb46" fill-rule="evenodd" d="M 23.76 27.34 L 18.26 16.52 C 17.06 14.17 14.46 13.63 12.43 15.32 L 0.82 25 C 0.65 25.14 0.49 25.3 0.34 25.47 C 0.88 26.58 2.03 27.36 3.36 27.36 L 23.5 27.36 C 23.59 27.36 23.67 27.35 23.76 27.34" />
</svg>