<svg width="191px" height="24px" viewBox="0 0 191 24" version="1.1" xmlns="http://www.w3.org/2000/svg" xmlns:xlink="http://www.w3.org/1999/xlink">
    <!-- Generator: Sketch 61 (89581) - https://sketch.com -->
    <title>Logo</title>
    <desc>Created with Sketch.</desc>
    <g id="Page-1" stroke="none" stroke-width="1" fill="none" fill-rule="evenodd">
        <g id="Test-A" transform="translate(-140.000000, -28.000000)">
            <g id="Top-Nav-section">
                <g id="Logo" transform="translate(140.000000, 28.000000)">
                    <g id="Cross" transform="translate(0.000000, 0.375000)">
                        <polygon id="Combined-Shape-Copy-10" fill="#00AAFF" points="7.49019608 15.5768247 7.49019608 23.625 4.99435018e-15 19.3002683 0 11.252093"></polygon>
                        <polygon id="Combined-Shape-Copy-12" fill="#002266" transform="translate(11.235294, 17.438547) scale(-1, 1) translate(-11.235294, -17.438547) " points="14.9803922 15.5768247 14.9803922 23.625 7.49019608 19.3002683 7.49019608 11.252093"></polygon>
                        <polygon id="Combined-Shape-Copy-13" fill="#00AAFF" points="22.4705882 15.5768247 22.4705882 23.625 14.9803922 19.3002683 14.9803922 11.252093"></polygon>
                        <polygon id="Combined-Shape-Copy-14" fill="#002266" transform="translate(26.215686, 17.438547) scale(-1, 1) translate(-26.215686, -17.438547) " points="29.9607843 15.5768247 29.9607843 23.625 22.4705882 19.3002683 22.4705882 11.252093"></polygon>
                        <polygon id="Combined-Shape" fill="#002266" points="10.4994537 0 14.9803922 2.59325581 19.4613306 0"></polygon>
                        <polygon id="Combined-Shape" fill="#00AAFF" points="0 2.59325581 0 11.252093 7.49019608 6.92267442"></polygon>
                        <polygon id="Combined-Shape-Copy-4" fill="#002266" points="29.9607843 2.59325581 29.9607843 11.252093 22.4705882 6.92267442"></polygon>
                    </g>
                    <g id="PF-horizontal" transform="translate(36.701961, 0.000000)">
                        <path d="M57.4784194,1.32137935 C56.9256833,1.32137935 56.4786553,1.76853587 56.4786553,2.32151413 C56.4786553,2.8731 56.9256833,3.32145 57.4784194,3.32145 C58.0311554,3.32145 58.4781834,2.8731 58.4781834,2.32151413 C58.4781834,1.76853587 58.0311554,1.32137935 57.4784194,1.32137935 L57.4784194,1.32137935 Z" id="Fill-1" fill="#002266"></path>
                        <path d="M124.208811,1.32137935 C123.656075,1.32137935 123.209047,1.76853587 123.209047,2.32151413 C123.209047,2.8731 123.656075,3.32145 124.208811,3.32145 C124.761349,3.32145 125.208575,2.8731 125.208575,2.32151413 C125.208575,1.76853587 124.761349,1.32137935 124.208811,1.32137935" id="Fill-3" fill="#00AAFF"></path>
                        <path d="M113.788576,8.35003141 C113.788576,6.94331837 115.018994,6.39053902 116.300184,6.39053902 C118.384397,6.39053902 119.46369,7.54602489 119.46369,7.54602489 L120.241725,6.24016076 C120.241725,6.24016076 119.011307,4.85831185 116.349765,4.85831185 C114.064845,4.85831185 112.030213,6.0897825 112.030213,8.35003141 C112.030213,12.4691227 118.836582,11.7908292 118.836582,14.5543282 C118.836582,15.8850564 117.655745,16.5635488 116.300184,16.5635488 C113.939701,16.5635488 112.533368,15.0315205 112.533368,15.0315205 L111.60401,16.2615988 C111.60401,16.2615988 113.211248,18.095776 116.274203,18.095776 C118.810601,18.095776 120.593755,16.6132771 120.593755,14.5543282 C120.593755,10.3841162 113.788576,11.1383945 113.788576,8.35003141" id="Fill-5" fill="#00AAFF"></path>
                        <polygon id="Fill-7" fill="#00AAFF" points="123.234948 17.8375272 124.933218 17.8375272 124.933218 5.1910337 123.234948 5.1910337"></polygon>
                        <path d="M107.193843,11.213325 C107.193843,13.9507663 105.43429,16.4881011 102.54725,16.4881011 C100.111206,16.4881011 99.8335484,14.7299087 99.8335484,12.7453533 L99.8335484,5.19083478 L98.1350801,5.19083478 L98.1350801,13.1976815 C98.1350801,16.4881011 99.420236,18.0515576 102.383036,18.0515576 C105.170912,18.0515576 106.857481,16.1390087 107.359445,14.8174304 L107.410217,14.8174304 C107.410217,14.8174304 107.382848,15.3572804 107.382848,15.9102587 L107.382848,17.8373283 L108.892113,17.8373283 L108.892113,5.19083478 L107.193843,5.19083478 L107.193843,11.213325 Z" id="Fill-9" fill="#00AAFF"></path>
                        <path d="M149.945545,4.84524326 C146.956765,4.84524326 145.3289,6.88987043 144.877906,8.02188457 L144.827134,8.02188457 C144.827134,8.02188457 144.750184,7.5970063 144.750184,7.04402804 L144.750184,5.19035739 L143.23953,5.19035739 L143.23953,17.8380443 L144.750184,17.8380443 L144.750184,11.7411607 C144.750184,11.1384541 144.876518,10.5606117 145.026452,10.0324976 C145.605169,7.94868457 147.43255,6.46618565 149.592326,6.46618565 C152.026982,6.46618565 152.298095,8.22457696 152.298095,10.2089335 L152.298095,17.8380443 L154.185568,17.8380443 L154.185568,9.75660522 C154.185568,6.64142804 153.05947,4.84524326 149.945545,4.84524326" id="Fill-10" fill="#00AAFF"></path>
                        <path d="M134.330306,4.85859033 C130.639053,4.85859033 127.650272,7.6718175 127.650272,11.4145653 C127.650272,15.2317066 130.639053,18.0958555 134.330306,18.0958555 C138.02156,18.0958555 141.01034,15.2317066 141.01034,11.4145653 C141.01034,7.6718175 138.02156,4.85859033 134.330306,4.85859033 M134.330306,16.5638273 C131.617794,16.5638273 129.408635,14.3533066 129.408635,11.4145653 C129.408635,8.5502175 131.617794,6.41548272 134.330306,6.41548272 C137.04262,6.41548272 139.251977,8.5502175 139.251977,11.4145653 C139.251977,14.3533066 137.04262,16.5638273 134.330306,16.5638273" id="Fill-11" fill="#00AAFF"></path>
                        <path d="M6.30539532,4.58001261 C2.93860417,4.58001261 1.9011581,7.07816152 1.9011581,7.07816152 L1.85038651,7.07816152 C1.85038651,7.07816152 1.88687859,6.71474739 1.88687859,6.15779087 L1.88687859,4.81274087 L0.188410202,4.81274087 L0.188410202,22.7169039 L2.07588377,21.7300963 L2.07588377,16.6395137 C2.07588377,15.9819072 1.92594892,15.3831789 1.92594892,15.3831789 L1.97672051,15.3831789 C1.97672051,15.3831789 3.09111727,17.8853061 6.15288222,17.8853061 C9.44391264,17.8853061 11.8488201,15.270793 11.8488201,11.2457876 C11.8488201,7.29517565 9.72295806,4.58001261 6.30539532,4.58001261 M5.97557831,16.4368213 C3.3439836,16.4368213 1.92594892,13.8797941 1.92594892,11.3229659 C1.92594892,7.70175391 3.92527865,6.18404739 6.052529,6.18404739 C8.43125738,6.18404739 10.0773676,8.18411804 10.0773676,11.2981017 C10.0773676,14.538793 8.22916265,16.4368213 5.97557831,16.4368213" id="Fill-12" fill="#002266"></path>
                        <path d="M79.5357604,4.85884891 C76.1207759,4.85884891 73.3081091,7.34526196 73.3081091,11.4892174 C73.3081091,15.3823435 76.1455667,18.0961141 79.9123825,18.0961141 C82.7500384,18.0961141 84.5837655,16.3365293 84.5837655,16.3365293 L83.8043423,15.0320576 C83.8043423,15.0320576 82.2728648,16.5849717 79.9633524,16.5849717 C77.3511937,16.5849717 75.1406462,14.8176293 75.0662737,11.6081674 L84.7584912,11.6081674 C84.7584912,11.6081674 84.8092628,11.0094391 84.8092628,10.7074891 C84.8092628,7.56744783 83.0263073,4.85884891 79.5357604,4.85884891 L79.5357604,4.85884891 Z M75.1406462,10.0984174 C75.5434474,7.64462609 77.3759845,6.23015543 79.4861788,6.23015543 C81.3682975,6.23015543 82.9767257,7.64462609 83.0770789,10.0984174 L75.1406462,10.0984174 Z" id="Fill-13" fill="#002266"></path>
                        <path d="M50.3883848,13.0217827 L50.3883848,6.70112185 L53.4083028,6.70112185 L53.4083028,5.37954359 L50.3883848,5.37954359 L50.3883848,1.37542402 L48.6901147,2.35188815 L48.6901147,5.37954359 L46.9916463,5.37954359 L46.9916463,6.70112185 L48.6901147,6.70112185 L48.6901147,13.1970251 C48.6901147,17.4181588 51.6136461,17.8953512 53.0707511,17.8953512 C53.5231339,17.8953512 53.7851232,17.8442305 53.7851232,17.8442305 L53.7851232,16.3122023 C53.7851232,16.3122023 53.568749,16.3619305 53.2167194,16.3619305 C52.2627688,16.3619305 50.3883848,15.9853882 50.3883848,13.0217827" id="Fill-14" fill="#002266"></path>
                        <path d="M40.7379547,16.5633101 C37.9498804,16.5633101 35.765512,14.4534395 35.765512,11.489834 C35.765512,8.47530685 37.9252879,6.41635793 40.6883731,6.41635793 C42.973293,6.41635793 44.3796265,7.9483862 44.3796265,7.9483862 L45.258213,6.6673862 C45.258213,6.6673862 43.7267355,4.85946554 40.6376015,4.85946554 C36.9203674,4.85946554 34.0085373,7.59670793 34.0085373,11.489834 C34.0085373,15.4076253 36.8955766,18.0953384 40.6376015,18.0953384 C43.8518796,18.0953384 45.5592726,16.1109818 45.5592726,16.1109818 L44.7810394,14.7802536 C44.7810394,14.7802536 43.2991435,16.5633101 40.7379547,16.5633101" id="Fill-15" fill="#002266"></path>
                        <path d="M16.0780937,8.3997 L16.028512,8.3997 C16.028512,8.3997 16.0402133,7.94737174 16.0402133,7.39578587 L16.0402133,5.19043696 L14.3419432,5.19043696 L14.3419432,17.8381239 L16.0402133,17.8381239 L16.0402133,12.469262 C16.0402133,11.6652554 16.1719021,10.8115207 16.4235785,10.007713 C16.9761162,8.14867174 18.3277115,6.74215761 20.1108653,6.74215761 C20.4367158,6.74215761 20.7585998,6.79307935 20.7585998,6.79307935 L20.7585998,5.10928043 C20.7585998,5.10928043 20.4275928,5.03488696 20.0755632,5.03488696 C18.0919012,5.03488696 16.680213,6.51201522 16.0780937,8.3997" id="Fill-16" fill="#002266"></path>
                        <path d="M27.2000867,4.85884891 C24.3626291,4.85884891 22.7188988,6.29022717 22.7188988,6.29022717 L23.5296577,7.59629022 C23.5296577,7.59629022 24.9907292,6.39087717 27.076331,6.39087717 C28.8840773,6.39087717 30.1954123,7.21974783 30.1954123,9.65643261 L30.1954123,10.0984174 L29.5383565,10.0984174 C27.3537898,10.0984174 21.8026303,10.1415815 21.8026303,14.4110511 C21.8026303,16.9223283 23.9883869,18.1380848 26.0973912,18.1380848 C29.2620877,18.1380848 30.3165898,15.383537 30.3165898,15.383537 L30.3673614,15.383537 C30.3673614,15.383537 30.1954123,15.7849435 30.1954123,16.4125141 L30.1954123,17.8373283 L31.8936824,17.8373283 L31.8936824,9.70616087 C31.8936824,6.54125543 30.2382508,4.85884891 27.2000867,4.85884891 L27.2000867,4.85884891 Z M30.1954123,11.9415457 C30.1954123,14.1274011 28.7615115,16.6386783 26.3502576,16.6386783 C24.4667505,16.6386783 23.549292,15.4489793 23.549292,14.2686293 C23.549292,11.4800674 27.5285155,11.4199957 29.5123757,11.4199957 L30.1954123,11.4199957 L30.1954123,11.9415457 Z" id="Fill-17" fill="#002266"></path>
                        <polygon id="Fill-18" fill="#002266" points="56.4274673 17.8375272 58.3147425 17.8375272 58.3147425 5.1910337 56.4274673 5.1910337"></polygon>
                        <path d="M67.2562147,16.5633101 C64.4681404,16.5633101 62.283772,14.4534395 62.283772,11.489834 C62.283772,8.47530685 64.4435479,6.41635793 67.2054431,6.41635793 C69.491553,6.41635793 70.8966965,7.9483862 70.8966965,7.9483862 L71.7764729,6.6673862 C71.7764729,6.6673862 70.2449955,4.85946554 67.1558615,4.85946554 C63.438429,4.85946554 60.525409,7.59670793 60.525409,11.489834 C60.525409,15.4076253 63.4138365,18.0953384 67.1558615,18.0953384 C70.3701395,18.0953384 72.0775326,16.1109818 72.0775326,16.1109818 L71.2992993,14.7802536 C71.2992993,14.7802536 69.8174035,16.5633101 67.2562147,16.5633101" id="Fill-19" fill="#002266"></path>
                        <path d="M90.7750636,4.70158826 L90.7750636,5.38008065 L89.0767935,5.38008065 L89.0767935,6.70046543 L90.7750636,6.70046543 L90.7750636,17.8382035 L92.4733336,17.8382035 L92.4733336,6.70046543 L95.6824552,6.70046543 L95.6824552,5.38008065 L92.4733336,5.38008065 L92.4733336,4.70158826 C92.4733336,1.88836109 94.3098373,1.53668283 95.2901653,1.53668283 C95.6406083,1.53668283 95.8700721,1.58760457 95.8700721,1.58760457 L95.8700721,0.054183913 C95.8700721,0.054183913 95.5949932,0.00465456522 95.1180179,0.00465456522 C93.6868937,0.00465456522 90.7750636,0.531376304 90.7750636,4.70158826" id="Fill-20" fill="#00AAFF"></path>
                    </g>
                </g>
            </g>
        </g>
    </g>
</svg>